# xmcd
#
# Track frame offsets:
#	150
#	19050
#	38492
#	59070
#	78812
#	100617
#	129395
#	148925
#	171022
#	186930
#	213547
#
# Disc length: 3063 seconds
#
# Revision: 5
# Processed by: cddbd v1.5.2PL0 Copyright (c) Steve Scherf et al.
# Submitted via: EasyCDDAExtractor 15.3.0.1
#
DISCID=930bf50b
DTITLE=Soraya - Torre De Marfil
DYEAR=1997
DGENRE=Latin
TTITLE0=Si Te Vas
TTITLE1=El Cruce
TTITLE2=Lejos De Aqui
TTITLE3=Paris, Cali, Milan
TTITLE4=Torre De Marfil
TTITLE5=Es Un Amor
TTITLE6=Sera El Final
TTITLE7=Dulce Amor
TTITLE8=Mi Dolor
TTITLE9=Cosas En La Vida
TTITLE10=Oropel
EXTD=
EXTT0=
EXTT1=
EXTT2=
EXTT3=
EXTT4=
EXTT5=
EXTT6=
EXTT7=
EXTT8=
EXTT9=
EXTT10=
PLAYORDER=
